<?xml version="1.0" encoding="utf-8"?>
<!-- Generator: Adobe Illustrator 16.2.1, SVG Export Plug-In . SVG Version: 6.00 Build 0)  -->
<!DOCTYPE svg PUBLIC "-//W3C//DTD SVG 1.1//EN" "http://www.w3.org/Graphics/SVG/1.1/DTD/svg11.dtd">
<svg version="1.1" id="Layer_1" xmlns="http://www.w3.org/2000/svg" xmlns:xlink="http://www.w3.org/1999/xlink" x="0px" y="0px"
	 width="184px" height="40px" viewBox="0 0 184 40" enable-background="new 0 0 184 40" xml:space="preserve">
<g>
	<path fill="#EBA021" d="M145.9873047,26.3701172c3.2744141,0,6.0263672-2.4921875,6.0263672-6.1923828
		c0-3.6630859-2.7519531-6.1943359-6.0263672-6.1943359c-3.3134766,0-6.0673828,2.53125-6.0673828,6.1943359
		C139.9199219,23.8779297,142.6738281,26.3701172,145.9873047,26.3701172 M145.9472656,9.7763672
		c6.2265625,0,11.2167969,4.3242188,11.2167969,10.4013672c0,6.1152344-4.9902344,10.4003906-11.1767578,10.4003906
		c-6.2265625,0-11.2158203-4.2851562-11.2158203-10.4003906C134.7714844,14.1005859,139.7607422,9.7763672,145.9472656,9.7763672"/>
	<path fill="#EBA021" d="M58.9238281,25.6376953c-0.9257812,0.4121094-2.0292969,0.7314453-3.25,0.7314453
		c-3.8701172,0-6.34375-2.8818359-6.34375-6.2314453c0-3.3896484,2.4326172-6.1572266,6.1884766-6.1572266
		c0.9238281,0,1.7646484,0.1855469,2.4892578,0.4394531c0.0039062,0,0.0078125,0.0029297,0.0126953,0.0058594
		c0,0,0.0019531,0.0029297,0.0048828,0.0029297c0.1914062,0.0664062,0.375,0.1435547,0.5458984,0.21875
		c3.0253906,1.0205078,4.4248047-1.9208984,4.4248047-1.9208984c0.0068359-0.015625,0.015625-0.0253906,0.0214844-0.0400391
		c-0.3408203-0.3720703-2.859375-2.9101562-7.78125-2.9101562c-6.7451172,0-11.0576172,4.7490234-11.0576172,10.3994141
		c0,5.7636719,4.3125,10.4013672,11.0576172,10.4013672c4.6542969,0,7.4570312-2.3398438,8.1875-3.0380859
		c0,0-0.0009766-0.0029297-0.0029297-0.0087891C63.4208984,27.5302734,61.9970703,24.5449219,58.9238281,25.6376953"/>
	<path fill="#EBA021" d="M14.3623047,13.6269531c2.2519531,0,3.9814453,1.4511719,4.0644531,4.1601562H9.4501953
		C9.9345703,15.1972656,11.7441406,13.6269531,14.3623047,13.6269531 M19.5205078,25.4716797
		c-0.1083984,0.0458984-0.0722656,0.0302734-0.1162109,0.0507812c-1.0439453,0.5078125-2.4277344,0.9824219-3.9541016,0.9824219
		c-3.0605469,0-5.8378906-1.8066406-6.1621094-5.3027344h14.1660156c0,0,0.1220703-1.3330078,0.1220703-1.9238281
		c0-5.3017578-3.1806641-9.5019531-9.0976562-9.5019531c-6.1142578,0-10.4208984,4.3173828-10.4208984,10.484375
		c0,5.6943359,4.2265625,10.484375,11.0263672,10.484375c4.40625,0,7.6611328-2.3603516,8.4785156-3.0087891
		C22.2265625,24.5322266,19.6289062,25.4238281,19.5205078,25.4716797"/>
	<path fill="#EBA021" d="M75.3837891,13.6269531c2.2519531,0,3.9814453,1.4511719,4.0644531,4.1601562h-8.9755859
		C70.9560547,15.1972656,72.765625,13.6269531,75.3837891,13.6269531 M80.5410156,25.4716797
		c-0.1074219,0.0458984-0.0722656,0.0302734-0.1152344,0.0507812c-1.0449219,0.5078125-2.4267578,0.9824219-3.9541016,0.9824219
		c-3.0595703,0-5.8378906-1.8066406-6.1611328-5.3027344h14.1640625c0,0,0.1230469-1.3330078,0.1230469-1.9238281
		c0-5.3017578-3.1796875-9.5019531-9.0966797-9.5019531c-6.1142578,0-10.4208984,4.3173828-10.4208984,10.484375
		c0,5.6943359,4.2265625,10.484375,11.0253906,10.484375c4.40625,0,7.6621094-2.3603516,8.4794922-3.0087891
		C83.25,24.5322266,80.6503906,25.4238281,80.5410156,25.4716797"/>
	<path fill="#EBA021" d="M107.84375,13.6269531c2.2509766,0,3.9804688,1.4511719,4.0634766,4.1601562h-8.9755859
		C103.4150391,15.1972656,105.2246094,13.6269531,107.84375,13.6269531 M113.0009766,25.4716797
		c-0.1083984,0.0458984-0.0722656,0.0302734-0.1162109,0.0507812c-1.0439453,0.5078125-2.4277344,0.9824219-3.9541016,0.9824219
		c-3.0605469,0-5.8369141-1.8066406-6.1611328-5.3027344h14.1650391c0,0,0.1220703-1.3330078,0.1220703-1.9238281
		c0-5.3017578-3.1796875-9.5019531-9.0966797-9.5019531c-6.1152344,0-10.4208984,4.3173828-10.4208984,10.484375
		c0,5.6943359,4.2265625,10.484375,11.0244141,10.484375c4.4072266,0,7.6630859-2.3603516,8.4804688-3.0087891
		C115.7080078,24.5322266,113.109375,25.4238281,113.0009766,25.4716797"/>
	<path fill="#EBA021" d="M132.0537109,10.1513672c-3.1601562,0-5.6337891,2.2910156-6.5654297,5.1787109v-1.4228516v-3.4794922
		h-0.8525391h-4.0976562v15.5966797c0,0.0498047,0.0087891,0.0927734,0.0087891,0.1445312v0.3173828
		c0.0048828,0.0478516,0.0097656,0.0976562,0.0097656,0.1533203c0.0361328,3.7822266,3.6142578,3.9443359,4.0751953,3.9501953
		h1.0615234v-7.9863281c0-1.1835938,0.1191406-2.2919922,0.4453125-3.28125
		c0.9697266-3.0039062,3.4433594-4.2294922,5.6308594-4.2294922c0.6865234,0,1.2158203,0.0791016,1.2158203,0.0791016v-4.9404297
		C132.9853516,10.2314453,132.5380859,10.1513672,132.0537109,10.1513672"/>
	<path fill="#EBA021" d="M34.3457031,23.4902344c0,0-2.5039062,4.1982422-2.7841797,4.6289062
		c0,0-1.3427734,2.1943359-3.2119141,2.1943359h-3.7529297l6.7119141-10.0595703l-6.5517578-9.828125h5.7529297l3.15625,5.421875
		c0.3203125,0.5058594,0.6796875,1.2470703,0.6796875,1.2470703h0.0791016c0,0,2.21875-3.6259766,2.5683594-4.1962891
		c0,0,1.4609375-2.4726562,4.03125-2.4726562h2.9892578l-6.5507812,9.828125l6.7109375,10.0595703h-5.6328125l-3.5566406-5.7714844
		c-0.2792969-0.4287109-0.5595703-1.0517578-0.5595703-1.0517578H34.3457031z"/>
	<path fill="#EBA021" d="M171.9394531,9.9179688c-4.1455078,0-6.3994141,2.4755859-7.2861328,4.1630859h-0.078125
		c0,0,0.078125-0.6298828,0.078125-1.3740234v-2.3173828h-4.9082031v20.0263672h5.1103516v-9.1875
		c0-0.9433594,0.0820312-1.8486328,0.3623047-2.6699219c0.7636719-2.3984375,2.7773438-4.0859375,5.5136719-4.0859375
		c2.6123047,0,3.2587891,1.6513672,3.2587891,4.0859375v7.8779297c0.0009766,0.0166016,0.0048828,0.0332031,0.0048828,0.0537109
		c0.0380859,3.7617188,3.5917969,3.9228516,4.0527344,3.9257812h1.0097656V17.5371094
		C179.0576172,12.2333984,176.4833984,9.9179688,171.9394531,9.9179688"/>
	<path fill="#EBA021" d="M94.6074219,26.2158203c-1.3300781,0-2.0957031-0.5517578-2.0957031-2.7519531v-6.3193359h-0.0126953
		v-6.6816406c-0.0341797-3.7675781-3.5585938-3.9287109-4.0175781-3.9316406h-1.0507812v16.0585938h0.0048828v1.6201172
		c0,5.7412109,3.5039062,6.4492188,6.3261719,6.4492188c0.8457031,0,1.6103516-0.1171875,1.6103516-0.1171875v-4.3662109
		C95.3720703,26.1757812,95.0097656,26.2158203,94.6074219,26.2158203"/>
</g>
</svg>
